<?xml version="1.0" encoding="utf-8"?>
<!-- Generator: Adobe Illustrator 22.0.1, SVG Export Plug-In . SVG Version: 6.00 Build 0)  -->
<svg version="1.1" id="Layer_1" xmlns="http://www.w3.org/2000/svg" xmlns:xlink="http://www.w3.org/1999/xlink" x="0px" y="0px"
	 viewBox="0 0 786 1050" style="enable-background:new 0 0 786 1050;" xml:space="preserve">
<style type="text/css">
	.st0{fill:#0099cc;}
	.st1{fill:#E2E2E2;}
	.st2{fill:#FFFFFF;}
	.st3{fill:#CCCCCC;}
</style>
<g id="Layer_3">
	<rect x="-0.1" class="st0" width="177.9" height="1050"/>
	<rect x="608" class="st1" width="177.9" height="1050"/>
	<rect x="177.9" class="st2" width="430.1" height="1050"/>
	<rect x="212.7" y="70.4" class="st3" width="64.2" height="7.7"/>
	<rect x="212.7" y="157.8" class="st3" width="64.2" height="7.7"/>
	<rect x="212.7" y="281.6" class="st3" width="64.2" height="7.7"/>
	<rect x="212.7" y="405.4" class="st3" width="64.2" height="7.7"/>
	<rect x="212.7" y="529.2" class="st3" width="64.2" height="7.7"/>
	<rect x="212.7" y="676.1" class="st3" width="64.2" height="7.7"/>
	<rect x="420.1" y="676.1" class="st3" width="64.2" height="7.7"/>
	<rect x="212.7" y="97.5" class="st3" width="311" height="3.9"/>
	<rect x="212.7" y="114.5" class="st3" width="311" height="3.9"/>
	<rect x="212.7" y="184.9" class="st3" width="359" height="3.9"/>
	<rect x="212.7" y="201.9" class="st3" width="359" height="3.9"/>
	<rect x="35.6" y="160.9" class="st2" width="107.5" height="4.6"/>
	<rect x="30.9" y="180.3" class="st2" width="117.6" height="2.3"/>
	<rect x="16.1" y="249.9" class="st2" width="145.4" height="3.9"/>
	<rect x="16.1" y="266.9" class="st2" width="145.4" height="3.9"/>
	<rect x="16.1" y="283.9" class="st2" width="145.4" height="3.9"/>
	<rect x="16.1" y="300.9" class="st2" width="145.4" height="3.9"/>
	<rect x="212.7" y="218.9" class="st3" width="359" height="3.9"/>
	<rect x="212.7" y="236" class="st3" width="359" height="3.9"/>
	<rect x="463.4" y="308.7" class="st3" width="108.3" height="3.9"/>
	<rect x="463.4" y="325.7" class="st3" width="108.3" height="3.9"/>
	<rect x="463.4" y="342.7" class="st3" width="108.3" height="3.9"/>
	<rect x="463.4" y="359.7" class="st3" width="108.3" height="3.9"/>
	<rect x="338.1" y="308.7" class="st3" width="108.3" height="3.9"/>
	<rect x="338.1" y="325.7" class="st3" width="108.3" height="3.9"/>
	<rect x="338.1" y="342.7" class="st3" width="108.3" height="3.9"/>
	<rect x="338.1" y="359.7" class="st3" width="108.3" height="3.9"/>
	<rect x="212.7" y="308.7" class="st3" width="108.3" height="3.9"/>
	<rect x="212.7" y="325.7" class="st3" width="108.3" height="3.9"/>
	<rect x="212.7" y="342.7" class="st3" width="108.3" height="3.9"/>
	<rect x="212.7" y="359.7" class="st3" width="108.3" height="3.9"/>
	<rect x="212.7" y="432.5" class="st3" width="359" height="3.9"/>
	<rect x="212.7" y="449.5" class="st3" width="359" height="3.9"/>
	<rect x="212.7" y="466.5" class="st3" width="359" height="3.9"/>
	<rect x="212.7" y="483.5" class="st3" width="359" height="3.9"/>
	<rect x="212.7" y="556.2" class="st3" width="359" height="3.9"/>
	<rect x="212.7" y="573.3" class="st3" width="359" height="3.9"/>
	<rect x="212.7" y="590.3" class="st3" width="359" height="3.9"/>
	<rect x="212.7" y="607.3" class="st3" width="359" height="3.9"/>
	<rect x="212.7" y="703.2" class="st3" width="151.6" height="3.9"/>
	<rect x="212.7" y="720.2" class="st3" width="151.6" height="3.9"/>
	<rect x="212.7" y="737.3" class="st3" width="151.6" height="3.9"/>
	<rect x="212.7" y="754.3" class="st3" width="151.6" height="3.9"/>
	<rect x="420.1" y="703.2" class="st3" width="151.6" height="3.9"/>
	<rect x="420.1" y="720.2" class="st3" width="151.6" height="3.9"/>
	<rect x="420.1" y="737.3" class="st3" width="151.6" height="3.9"/>
	<rect x="420.1" y="754.3" class="st3" width="151.6" height="3.9"/>
	<path class="st2" d="M89.4,143.9c-33,0-59.7-26.8-59.7-59.8s26.7-59.8,59.7-59.8s59.7,26.8,59.7,59.8
		C149.3,117.1,122.4,143.9,89.4,143.9z M89.4,31.8c-28.9,0-52.3,23.4-52.3,52.3c0,17.3,8.5,32.7,21.5,42.2
		c6.4-0.6,18.3-3.2,18.4-14.8c0-3.4,2.4-5,0-7.5c-2.5-2.5-3.9-7.6-5-12.5c-0.6-2.7-5-2.5-5-7.5c-2.6-2.6,0-6.8,0-10
		c0-7.7-0.6-15.4,2.5-19.9c10.2-14.7,30-14.8,39.8,0c3.3,5,2.5,12.3,2.5,19.9c0,3.1,2.3,7.5,0,10c-0.1,4.9-4.6,5.6-5,7.5
		c-0.8,4.8-3.1,10.4-5,12.5c-1.5,1.7,0,4,0,7.5c0.1,11.6,12,14.2,18.4,14.8c13-9.5,21.5-24.8,21.5-42.2
		C141.8,55.2,118.4,31.8,89.4,31.8z"/>
	<rect x="624.2" y="53" class="st2" width="65.8" height="7.7"/>
	<rect x="624.2" y="73.9" class="st2" width="145.4" height="3.9"/>
	<rect x="624.2" y="90.9" class="st2" width="145.4" height="3.9"/>
	<rect x="624.2" y="107.9" class="st2" width="145.4" height="3.9"/>
	<rect x="624.2" y="124.9" class="st2" width="145.4" height="3.9"/>
	<rect x="624.2" y="141.9" class="st2" width="145.4" height="3.9"/>
	<rect x="624.2" y="158.9" class="st2" width="145.4" height="3.9"/>
	<rect x="624.2" y="175.9" class="st2" width="145.4" height="3.9"/>
	<rect x="624.2" y="451" class="st2" width="65.8" height="7.7"/>
	<rect x="624.2" y="471.9" class="st2" width="145.4" height="3.9"/>
	<rect x="624.2" y="488.9" class="st2" width="145.4" height="3.9"/>
	<rect x="624.2" y="505.9" class="st2" width="145.4" height="3.9"/>
	<rect x="624.2" y="522.9" class="st2" width="145.4" height="3.9"/>
	<rect x="624.2" y="539.9" class="st2" width="145.4" height="3.9"/>
	<rect x="624.2" y="556.9" class="st2" width="145.4" height="3.9"/>
	<rect x="16.2" y="573.9" class="st1" width="145.4" height="3.9"/>
	<rect x="624.2" y="231" class="st2" width="65.8" height="7.7"/>
	<rect x="624.2" y="251.9" class="st2" width="145.4" height="3.9"/>
	<rect x="624.2" y="268.9" class="st2" width="145.4" height="3.9"/>
	<rect x="624.2" y="285.9" class="st2" width="145.4" height="3.9"/>
	<rect x="624.2" y="302.9" class="st2" width="145.4" height="3.9"/>
	<rect x="624.2" y="345" class="st2" width="65.8" height="7.7"/>
	<rect x="624.2" y="365.9" class="st2" width="145.4" height="3.9"/>
	<rect x="624.2" y="382.9" class="st2" width="145.4" height="3.9"/>
	<rect x="624.2" y="399.9" class="st2" width="145.4" height="3.9"/>
	<rect x="624.2" y="416.9" class="st2" width="145.4" height="3.9"/>
</g>
</svg>
