<?xml version="1.0" encoding="utf-8"?>
<!-- Generator: Adobe Illustrator 22.0.1, SVG Export Plug-In . SVG Version: 6.00 Build 0)  -->
<svg version="1.1" id="Layer_1" xmlns="http://www.w3.org/2000/svg" xmlns:xlink="http://www.w3.org/1999/xlink" x="0px" y="0px"
	 viewBox="0 0 786 1050" style="enable-background:new 0 0 786 1050;" xml:space="preserve">
<style type="text/css">
	.st0{fill:#222222;}
	.st1{fill:#FFFFFF;}
	.st2{fill:#CCCCCC;}
</style>
<g id="leftbar">
	<rect class="st0" width="230" height="1050"/>
	<rect x="230" class="st1" width="556" height="1050"/>
	<rect x="275" y="91" class="st2" width="83" height="10"/>
	<rect x="275" y="204" class="st2" width="83" height="10"/>
	<rect x="275" y="364" class="st2" width="83" height="10"/>
	<rect x="275" y="524" class="st2" width="83" height="10"/>
	<rect x="275" y="684" class="st2" width="83" height="10"/>
	<rect x="275" y="874" class="st2" width="83" height="10"/>
	<rect x="543" y="874" class="st2" width="83" height="10"/>
	<rect x="275" y="126" class="st2" width="402" height="5"/>
	<rect x="275" y="148" class="st2" width="402" height="5"/>
	<rect x="275" y="239" class="st2" width="464" height="5"/>
	<rect x="275" y="261" class="st2" width="464" height="5"/>
	<rect x="46" y="208" class="st1" width="139" height="6"/>
	<rect x="40" y="233" class="st1" width="152" height="3"/>
	<rect x="21" y="323" class="st1" width="188" height="5"/>
	<rect x="21" y="345" class="st1" width="188" height="5"/>
	<rect x="21" y="367" class="st1" width="188" height="5"/>
	<rect x="21" y="389" class="st1" width="188" height="5"/>
	<rect x="275" y="283" class="st2" width="464" height="5"/>
	<rect x="275" y="305" class="st2" width="464" height="5"/>
	<rect x="599" y="399" class="st2" width="140" height="5"/>
	<rect x="599" y="421" class="st2" width="140" height="5"/>
	<rect x="599" y="443" class="st2" width="140" height="5"/>
	<rect x="599" y="465" class="st2" width="140" height="5"/>
	<rect x="437" y="399" class="st2" width="140" height="5"/>
	<rect x="437" y="421" class="st2" width="140" height="5"/>
	<rect x="437" y="443" class="st2" width="140" height="5"/>
	<rect x="437" y="465" class="st2" width="140" height="5"/>
	<rect x="275" y="399" class="st2" width="140" height="5"/>
	<rect x="275" y="421" class="st2" width="140" height="5"/>
	<rect x="275" y="443" class="st2" width="140" height="5"/>
	<rect x="275" y="465" class="st2" width="140" height="5"/>
	<rect x="275" y="559" class="st2" width="464" height="5"/>
	<rect x="275" y="581" class="st2" width="464" height="5"/>
	<rect x="275" y="603" class="st2" width="464" height="5"/>
	<rect x="275" y="625" class="st2" width="464" height="5"/>
	<rect x="275" y="719" class="st2" width="464" height="5"/>
	<rect x="275" y="741" class="st2" width="464" height="5"/>
	<rect x="275" y="763" class="st2" width="464" height="5"/>
	<rect x="275" y="785" class="st2" width="464" height="5"/>
	<rect x="275" y="909" class="st2" width="196" height="5"/>
	<rect x="275" y="931" class="st2" width="196" height="5"/>
	<rect x="275" y="953" class="st2" width="196" height="5"/>
	<rect x="275" y="975" class="st2" width="196" height="5"/>
	<rect x="543" y="909" class="st2" width="196" height="5"/>
	<rect x="543" y="931" class="st2" width="196" height="5"/>
	<rect x="543" y="953" class="st2" width="196" height="5"/>
	<rect x="543" y="975" class="st2" width="196" height="5"/>
	<path class="st1" d="M115.8,186c-42.7,0-77.2-34.6-77.2-77.3s34.6-77.3,77.2-77.3c42.7,0,77.2,34.6,77.2,77.3S158.4,186,115.8,186z
		 M115.8,41.1c-37.3,0-67.6,30.3-67.6,67.6c0,22.4,10.9,42.2,27.7,54.5c8.3-0.8,23.6-4.2,23.8-19.1c0-4.4,3.2-6.5,0-9.7
		s-5-9.8-6.4-16.1c-0.8-3.5-6.4-3.3-6.4-9.7c-3.4-3.4,0-8.8,0-12.9c0-9.9-0.8-19.9,3.2-25.8c13.2-19,38.7-19.2,51.5,0
		c4.3,6.5,3.3,15.9,3.2,25.8c0,4,2.9,9.7,0,12.9c-0.1,6.4-6,7.2-6.4,9.7c-1.1,6.2-4.1,13.4-6.4,16.1c-2,2.3,0,5.2,0,9.7
		c0.1,15,15.5,18.4,23.8,19.1c16.8-12.3,27.7-32.1,27.7-54.5C183.3,71.4,153.1,41.1,115.8,41.1z"/>
</g>
</svg>
