<?xml version="1.0" encoding="utf-8"?>
<!-- Generator: Adobe Illustrator 22.0.1, SVG Export Plug-In . SVG Version: 6.00 Build 0)  -->
<svg version="1.1" id="Layer_1" xmlns="http://www.w3.org/2000/svg" xmlns:xlink="http://www.w3.org/1999/xlink" x="0px" y="0px"
	 viewBox="0 0 786 1050" style="enable-background:new 0 0 786 1050;" xml:space="preserve">
<style type="text/css">
	.st0{fill:#FFFFFF;}
	.st1{fill:#39B54A;}
	.st2{fill:#CCCCCC;}
</style>
<g id="Layer_4">
	<rect class="st0" width="786" height="1050"/>
	<rect x="236" y="62" class="st1" width="83" height="10"/>
	<rect x="123" y="204" class="st1" width="83" height="10"/>
	<rect x="123" y="364" class="st1" width="83" height="10"/>
	<rect x="123" y="524" class="st1" width="83" height="10"/>
	<rect x="123" y="684" class="st1" width="83" height="10"/>
	<rect x="123" y="834" class="st1" width="83" height="10"/>
	<rect x="391" y="834" class="st1" width="83" height="10"/>
	<rect x="236" y="124" class="st2" width="143" height="5"/>
	<rect x="236" y="96" class="st2" width="143" height="5"/>
	<rect x="236" y="148" class="st2" width="246" height="5"/>
	<rect x="600" y="210" class="st2" width="80" height="1"/>
	<rect x="600" y="368" class="st2" width="80" height="1"/>
	<rect x="600" y="528" class="st2" width="80" height="1"/>
	<rect x="600" y="689" class="st2" width="80" height="1"/>
	<rect x="123" y="239" class="st2" width="557" height="5"/>
	<rect x="123" y="261" class="st2" width="557" height="5"/>
	<rect x="123" y="283" class="st2" width="557" height="5"/>
	<rect x="123" y="305" class="st2" width="557" height="5"/>
	<rect x="511.9" y="399" class="st2" width="168.1" height="5"/>
	<rect x="511.9" y="421" class="st2" width="168.1" height="5"/>
	<rect x="511.9" y="443" class="st2" width="168.1" height="5"/>
	<rect x="511.9" y="465" class="st2" width="168.1" height="5"/>
	<rect x="562" y="79" class="st2" width="118.3" height="3"/>
	<rect x="562" y="101" class="st2" width="118.3" height="3"/>
	<rect x="562" y="123" class="st2" width="118.3" height="3"/>
	<rect x="562" y="145" class="st2" width="118.3" height="3"/>
	<rect x="317.5" y="399" class="st2" width="168.1" height="5"/>
	<rect x="317.5" y="421" class="st2" width="168.1" height="5"/>
	<rect x="317.5" y="443" class="st2" width="168.1" height="5"/>
	<rect x="317.5" y="465" class="st2" width="168.1" height="5"/>
	<rect x="123" y="399" class="st2" width="168.1" height="5"/>
	<rect x="123" y="421" class="st2" width="168.1" height="5"/>
	<rect x="123" y="443" class="st2" width="168.1" height="5"/>
	<rect x="123" y="465" class="st2" width="168.1" height="5"/>
	<rect x="123" y="559" class="st2" width="557" height="5"/>
	<rect x="123" y="581" class="st2" width="557" height="5"/>
	<rect x="123" y="603" class="st2" width="557" height="5"/>
	<rect x="123" y="625" class="st2" width="557" height="5"/>
	<rect x="123" y="719" class="st2" width="557" height="5"/>
	<rect x="123" y="741" class="st2" width="557" height="5"/>
	<rect x="123" y="763" class="st2" width="557" height="5"/>
	<rect x="123" y="785" class="st2" width="557" height="5"/>
	<rect x="123" y="869" class="st2" width="235.3" height="5"/>
	<rect x="123" y="891" class="st2" width="235.3" height="5"/>
	<rect x="123" y="913" class="st2" width="235.3" height="5"/>
	<rect x="123" y="935" class="st2" width="235.3" height="5"/>
	<rect x="391" y="869" class="st2" width="289" height="5"/>
	<rect x="391" y="891" class="st2" width="289" height="5"/>
	<rect x="391" y="913" class="st2" width="289" height="5"/>
	<rect x="391" y="935" class="st2" width="289" height="5"/>
	<rect x="123" y="60" class="st2" width="83" height="93"/>
	<path class="st0" d="M182.7,81.9l0.1,0.2c0.4,3.5,0.5,6.5,0.1,9.1c-1,6.3-3.7,11.7-7.9,16.3c-0.4,0.3-0.6,0.8-0.8,1.4l-0.2,0.8
		l-0.1,0.9c0,0.7,0,1.2,0,1.6c0.1,0.6,0.3,1,0.6,1.4c0.3,0.5,0.6,0.8,0.8,1c0.4,0.3,0.7,0.6,1.1,0.7c6.5,2.2,11.9,4.8,16,7.7
		c3,2.2,4.8,4.2,5.6,6c0.4,2.1,0.6,4.2,0.3,6.2c-0.2,1.9-1.4,3.5-3.5,4.9c-2.2,1.4-5.4,2.5-9.5,3.3c-5.7,1.1-14.2,1.6-25.6,1.4
		c-1.1,0-2.7-0.1-4.8-0.3l-2.4-0.2l-2.4-0.1l-0.2-0.1c-1.5-0.4-3.2-0.6-5-0.8l-0.2-0.1l-3-0.9c-1.2-0.3-2.2-0.6-3-0.8
		c-4.3-1.4-6.6-3.7-6.8-7.1l-0.1-1.3V132c0-1,0.2-1.9,0.6-2.6c0.7-1.6,2-3.2,4-5c3.8-3,8.8-5.8,15.2-8.3l0.9-0.3l0.9-0.4
		c0.8-0.3,1.3-0.7,1.7-1c1.7-1.7,2-3.8,0.7-6.2c-3.6-3.8-6.2-8.3-7.6-13.5c-1.5-5.4-1.5-10.4,0.1-14.9c1.3-3.8,3.6-6.7,6.9-8.8
		c4.7-2.9,9.9-3.5,15.6-1.8c5.2,1.6,8.7,4.7,10.5,9.2C181.8,79.4,182.1,80.6,182.7,81.9z"/>
</g>
</svg>
